# xmcd CD database file
#
# Track frame offsets:
#	150
#	10953
#	32533
#	48872
#	53644
#	73380
#	79773
#	96782
#	97868
#	115391
#	136745
#	154224
#	175542
#	176860
#	195579
#	198446
#	220318
#	240712
#	264406
#	281544
#	283965
#	307361
#
# Disc length: 4296 seconds
#
# Revision: 0
# Processed by: cddbd v1.5.2PL0 Copyright (c) Steve Scherf et al.
# Submitted via: CDex 1.50beta10
#
DISCID=3f10c616
DTITLE=JIVE EPIC - mon afrique
DYEAR=2007
DGENRE=Rhythmic Soul
TTITLE0=mokobe - intro
TTITLE1=mokobe - mali forever
TTITLE2=mokobe - safari
TTITLE3=mokobe - interlude
TTITLE4=mokobe - c'est dans la joie
TTITLE5=mokobe - interlude jacques chirac
TTITLE6=mokobe - politique
TTITLE7=mokobe - gohou
TTITLE8=mokobe - marabout diaby
TTITLE9=mokobe - sur les traces de fela
TTITLE10=mokobe - maman dort
TTITLE11=mokobe - profitez
TTITLE12=mokobe - gohou 2
TTITLE13=mokobe - beyonce coulibaly
TTITLE14=mokobe - interlude nash
TTITLE15=mokobe - malembe
TTITLE16=mokobe - nuit de flammes
TTITLE17=mokobe - mes racines
TTITLE18=mokobe - bisou
TTITLE19=mokobe - gohou 3
TTITLE20=mokobe - mes sentiments
TTITLE21=mokobe - fanka
EXTD=YEAR: 2007
EXTT0=
EXTT1=
EXTT2=
EXTT3=
EXTT4=
EXTT5=
EXTT6=
EXTT7=
EXTT8=
EXTT9=
EXTT10=
EXTT11=
EXTT12=
EXTT13=
EXTT14=
EXTT15=
EXTT16=
EXTT17=
EXTT18=
EXTT19=
EXTT20=
EXTT21=
PLAYORDER=
